<svg width="19" height="18" viewBox="0 0 19 18" fill="none" xmlns="http://www.w3.org/2000/svg">
<path fill-rule="evenodd" clip-rule="evenodd" d="M10.1626 8.96071C10.2846 8.88632 10.3881 8.73043 10.4715 8.55718C11.57 9.00613 12.3419 10.067 12.3419 11.3042C12.3419 12.9478 10.9796 14.2802 9.29913 14.2802C8.60929 14.2802 7.97307 14.0556 7.4627 13.6772C7.29529 13.5979 7.15754 13.5218 7.04483 13.4595C6.87 13.3628 6.75535 13.2994 6.68357 13.3094C6.47372 13.3383 6.53464 13.5314 6.59001 13.7068C6.6276 13.8259 6.66265 13.9369 6.6084 13.9827C6.55166 14.0306 6.36786 13.8554 6.15309 13.6506C5.86073 13.3719 5.51099 13.0384 5.34607 13.1386C5.21568 13.2178 5.34228 13.4326 5.49725 13.6956L5.50874 13.7151C5.5742 13.8263 5.65007 13.9395 5.71929 14.0427C5.86002 14.2527 5.97337 14.4218 5.91666 14.4505C5.84811 14.4851 5.37047 14.1627 4.96797 13.7151C4.81261 13.5424 4.66214 13.3551 4.52229 13.1811V13.1811C4.21618 12.8002 3.96116 12.4829 3.818 12.5205C3.64578 12.5657 3.77606 12.9209 3.96748 13.2628C4.05699 13.4226 4.16229 13.5854 4.25345 13.7263V13.7264C4.39523 13.9455 4.50285 14.1119 4.46382 14.1323C4.41116 14.1599 3.94776 13.708 3.63302 13.1386C3.44607 12.8003 3.2891 12.4265 3.16202 12.1239C3.0242 11.7958 2.92154 11.5513 2.85394 11.5267C2.61908 11.4412 2.61908 11.9201 2.71327 12.6112C2.72556 12.7014 2.74386 12.796 2.76639 12.8923C3.6799 15.848 6.48613 18.0001 9.80626 18.0001C13.8674 18.0001 17.1596 14.7802 17.1596 10.8082C17.1596 7.02777 14.1773 3.92863 10.3882 3.63848C10.393 3.46039 10.4859 3.10723 10.4859 3.10723C10.4859 3.10723 11.1549 1.48878 11.1902 1.14293C11.1926 1.11998 11.1953 1.09504 11.1983 1.06847C11.24 0.694793 11.3175 0 10.7198 0C10.4005 0 10.2521 0.237469 10.0823 0.509062V0.509065C10.0172 0.613329 9.94882 0.722623 9.86649 0.825438C9.27347 1.56599 8.27629 2.49079 7.71087 2.98348C6.51576 4.02485 5.34323 4.8807 4.65936 5.37985L4.65933 5.37988C4.3483 5.60689 4.13838 5.76014 4.07341 5.82345C3.58382 6.30074 1.82838 9.46714 1.82838 9.46714C1.82838 9.46714 1.26069 10.483 1.46247 10.6891C1.66425 10.8951 2.15085 10.8479 2.15085 10.8479C2.15085 10.8479 8.68787 9.3482 9.27312 9.22994C9.43069 9.19808 9.54192 9.1797 9.62732 9.1656C9.85918 9.12732 9.9008 9.12042 10.1626 8.96071ZM5.54066 7.03354C5.18977 7.36707 4.60782 8.16319 4.60782 8.16319C4.60782 8.16319 5.68938 8.22981 6.28503 7.66361C6.88072 7.09738 6.74425 6.13244 6.74425 6.13244C6.74425 6.13244 5.89153 6.70001 5.54066 7.03354Z" fill="white"/>
</svg>
