<svg width="19" height="18" viewBox="0 0 19 18" fill="none" xmlns="http://www.w3.org/2000/svg">
<g clip-path="url(#clip0_11_1678)">
<path fill-rule="evenodd" clip-rule="evenodd" d="M4.49381 14.2727L7.38092 13.4356L9.87457 17.9951C9.87784 18.001 9.88631 18.001 9.88955 17.9951L12.3832 13.4356L15.2703 14.2727C15.2768 14.2746 15.2828 14.2686 15.2809 14.2621L14.4436 11.4321L18.8774 9.00722C18.8833 9.00399 18.8833 8.99551 18.8774 8.99228L14.4071 6.54736L15.2809 3.59387C15.2828 3.5874 15.2768 3.58139 15.2703 3.58325L12.3155 4.44005L9.88955 0.00443632C9.88631 -0.00147867 9.87784 -0.00147883 9.87461 0.00443618L7.44867 4.44005L4.49381 3.58325C4.48734 3.58139 4.48132 3.5874 4.48326 3.59387L5.35707 6.54736L0.886761 8.99228C0.880846 8.99551 0.880845 9.00399 0.88676 9.00722L5.32051 11.4321L4.48326 14.2621C4.48132 14.2686 4.48734 14.2746 4.49381 14.2727ZM6.73419 9.03085L8.77955 10.1495L9.8982 12.1948C9.90143 12.2008 9.90994 12.2008 9.91317 12.1948L11.0318 10.1495L13.0771 9.03085C13.0831 9.02761 13.0831 9.0191 13.0771 9.01587L11.0318 7.89723L9.91317 5.8519C9.90994 5.84595 9.90143 5.84595 9.8982 5.8519L8.77955 7.89723L6.73419 9.01587C6.72828 9.0191 6.72828 9.02761 6.73419 9.03085Z" fill="white"/>
</g>
<defs>
<clipPath id="clip0_11_1678">
<rect width="18.0001" height="18.0001" fill="white" transform="translate(0.882324)"/>
</clipPath>
</defs>
</svg>
