<svg width="19" height="18" viewBox="0 0 19 18" fill="none" xmlns="http://www.w3.org/2000/svg">
<g clip-path="url(#clip0_11_1690)">
<path fill-rule="evenodd" clip-rule="evenodd" d="M3.74895 1.49645C3.96679 0.636381 4.74597 0 5.67374 0C6.36967 0 6.98199 0.358058 7.3365 0.900005H7.91704C8.27771 0.529864 8.78161 0.300002 9.33922 0.300002C10.1568 0.300002 10.8589 0.794121 11.1633 1.50001H11.6493C11.9539 1.30988 12.3137 1.20001 12.6992 1.20001C13.5168 1.20001 14.2189 1.69413 14.5233 2.40001H15.845C15.8563 2.40001 15.8669 2.40305 15.876 2.40836C15.9363 2.40284 15.9975 2.40001 16.0592 2.40001C17.1558 2.40001 18.0447 3.28893 18.0447 4.38548V10.339L18.0447 10.3501L18.0447 10.3611V10.4468C18.0447 10.4832 18.0437 10.5193 18.0417 10.5553C17.9223 14.6854 14.2085 18.0001 9.64466 18.0001C5.00545 18.0001 1.24463 14.5751 1.24463 10.3501C1.24463 8.31067 2.1209 6.45764 3.54926 5.08626C3.5457 7.07446 3.57928 9.12992 3.73408 9.09466C4.14859 9.00015 3.82473 2.84203 3.74895 1.49645Z" fill="white"/>
</g>
<defs>
<clipPath id="clip0_11_1690">
<rect width="18.0001" height="18.0001" fill="white" transform="translate(0.646973)"/>
</clipPath>
</defs>
</svg>
