<svg width="19" height="18" viewBox="0 0 19 18" fill="none" xmlns="http://www.w3.org/2000/svg">
<g clip-path="url(#clip0_11_1682)">
<path fill-rule="evenodd" clip-rule="evenodd" d="M12.8546 13.9009C13.077 13.0877 12.6453 11.4159 12.6453 11.4159C12.6453 11.4159 12.3322 12.7778 11.843 13.2812C11.4256 13.7106 10.9142 14.0084 10.1809 14.0866C10.7805 13.7954 11.1928 13.1881 11.1928 12.4862C11.1928 11.5009 10.3803 10.7022 9.37797 10.7022C8.37566 10.7022 7.56309 11.5009 7.56309 12.4862C7.56309 12.7553 7.62373 13.0105 7.73226 13.2393C7.10535 12.7399 7.00677 11.9392 7.00677 11.9392C7.00677 11.9392 6.30674 14.8455 8.23563 16.2127C10.1645 17.5799 13.9431 16.4047 13.9431 16.4047C13.9431 16.4047 8.53569 20.2095 4.52877 16.0685C1.07714 12.5013 3.62789 7.80508 3.62789 7.80508C3.62789 7.80508 3.51773 8.24074 3.51773 8.74646C3.51773 9.25219 3.79193 9.63698 3.79193 9.63698C3.79193 9.63698 4.60984 7.91294 5.24638 7.21181C5.84882 6.54827 6.60402 6.0101 7.25631 5.54526C7.75842 5.18744 8.19956 4.87307 8.46302 4.57842C9.91417 2.9558 9.0244 0.000244141 9.0244 0.000244141C9.0244 0.000244141 10.6602 1.44236 11.1169 3.30487C11.291 4.01483 11.179 4.82262 11.0789 5.54498C10.9163 6.71766 10.7849 7.66523 11.9593 7.60374C13.8571 7.50435 12.208 4.57842 12.208 4.57842C12.208 4.57842 16.513 6.84109 16.1914 10.7984C15.8697 14.7556 11.4858 15.6553 11.4858 15.6553C11.4858 15.6553 12.6322 14.7141 12.8546 13.9009Z" fill="white"/>
</g>
<defs>
<clipPath id="clip0_11_1682">
<rect width="18.0001" height="18.0001" fill="white" transform="translate(0.470703)"/>
</clipPath>
</defs>
</svg>
