<svg width="18" height="18" viewBox="0 0 18 18" fill="none" xmlns="http://www.w3.org/2000/svg">
<g clip-path="url(#clip0_11_1706)">
<path fill-rule="evenodd" clip-rule="evenodd" d="M6.28092 16.7954C8.91776 16.7954 11.1752 15.3299 12.1072 13.2524C12.1186 13.2271 8.36553 14.2278 8.4852 13.874C8.53864 13.7161 10.8393 12.8756 12.5154 11.8953C13.4788 11.3319 13.9225 10.1391 13.9225 10.1391C13.9225 10.1391 12.2994 10.9271 11.4789 11.127C9.8254 11.5299 8.36989 11.4866 8.36989 11.4446C8.36989 11.3538 10.7867 10.8946 14.1458 8.8476C15.7259 7.88477 16.155 6.2263 16.155 6.2263C16.155 6.2263 14.4179 7.26103 13.3678 7.60264C10.8775 8.41275 8.60487 8.65688 8.60487 8.54726C8.60487 8.31256 10.6048 7.76261 12.7252 6.73516C13.8277 6.20096 14.7826 5.50303 15.889 4.72688C17.6995 3.457 17.9981 1.19531 17.9981 1.19531C17.9981 1.19531 16.2124 2.34704 15.341 2.72952C11.7453 4.30775 8.57021 5.13561 6.28092 5.31484C2.82519 5.5854 -0.00195312 7.99654 -0.00195312 11.127C-0.00195312 14.2576 2.81098 16.7954 6.28092 16.7954Z" fill="white"/>
</g>
<defs>
<clipPath id="clip0_11_1706">
<rect width="18.0001" height="18.0001" fill="white" transform="translate(-0.00195312)"/>
</clipPath>
</defs>
</svg>
