<svg width="19" height="18" viewBox="0 0 19 18" fill="none" xmlns="http://www.w3.org/2000/svg">
<g clip-path="url(#clip0_11_1680)">
<path fill-rule="evenodd" clip-rule="evenodd" d="M13.1478 17.9378C11.5242 18.0209 9.66534 18.0209 9.03365 17.9378C4.10619 17.2895 0.176758 13.6869 0.176758 8.81723C0.176758 3.94761 4.20621 0 9.17681 0C14.1474 0 18.1769 3.94761 18.1769 8.81723C18.1769 11.082 17.3052 13.1474 15.8727 14.709C15.4837 15.133 16.0174 15.4304 16.5597 15.7326C17.0916 16.0291 17.6316 16.33 17.3178 16.7595C16.9719 17.2327 15.0969 17.838 13.1478 17.9378ZM7.91117 7.71508C7.91117 8.47594 7.28156 9.09276 6.50492 9.09276C5.72828 9.09276 5.09866 8.47594 5.09866 7.71508C5.09866 7.20478 5.38184 6.75932 5.80263 6.5212C5.82685 7.18464 6.37234 7.71505 7.04172 7.71505H7.91117V7.71508ZM12.2697 6.5212C12.2455 7.18464 11.7 7.71505 11.0306 7.71505H10.1612V7.71508C10.1612 8.47594 10.7908 9.09276 11.5674 9.09276C12.3441 9.09276 12.9737 8.47594 12.9737 7.71508C12.9737 7.20478 12.6905 6.75932 12.2697 6.5212Z" fill="white"/>
</g>
<defs>
<clipPath id="clip0_11_1680">
<rect width="18.0001" height="18.0001" fill="white" transform="translate(0.176758)"/>
</clipPath>
</defs>
</svg>
