<svg width="19" height="18" viewBox="0 0 19 18" fill="none" xmlns="http://www.w3.org/2000/svg">
<g clip-path="url(#clip0_11_1686)">
<path fill-rule="evenodd" clip-rule="evenodd" d="M3.48332 15.4919C3.42154 15.4338 3.36044 15.3745 3.30004 15.3141C0.111899 12.126 0.111899 6.957 3.30004 3.76887C6.48817 0.580715 16.6468 0.367432 16.6468 0.367432C16.6468 0.367432 18.0335 12.126 14.8454 15.3141C12.0139 18.1456 7.61993 18.4624 4.43887 16.2645L7.00206 13.119L11.0995 12.2343L7.75479 11.9L9.88042 9.73566L12.3 9.20561L10.3867 8.63899L12.3 5.18747L9.57857 8.24003L8.52764 6.75703L8.89759 9.20561L7.00206 11.3425L6.12339 8.63895V12.2343L3.48332 15.4919Z" fill="white"/>
</g>
<defs>
<clipPath id="clip0_11_1686">
<rect width="18.0001" height="18.0001" fill="white" transform="translate(0.0585938)"/>
</clipPath>
</defs>
</svg>
