<svg width="19" height="18" viewBox="0 0 19 18" fill="none" xmlns="http://www.w3.org/2000/svg">
<path fill-rule="evenodd" clip-rule="evenodd" d="M12.3835 0.0178673C12.3966 -0.000825912 12.4223 -0.00536887 12.441 0.0077203L13.7191 0.902647C13.7378 0.915735 13.7424 0.941498 13.7293 0.960191L11.9504 3.50068C12.8152 3.77696 13.4044 4.07498 13.4044 4.07498C13.4044 4.07498 11.9642 6.55217 9.52161 6.55217C7.07898 6.55217 5.34327 4.24338 5.34327 4.24338C5.34327 4.24338 5.95871 3.85061 6.87102 3.51375L4.91984 1.18845C4.90518 1.17096 4.90747 1.1449 4.92494 1.13024L6.12015 0.127322C6.13766 0.112654 6.16371 0.114934 6.17837 0.132415L8.64889 3.07666C8.86042 3.05273 9.07593 3.03936 9.29341 3.03936C9.60598 3.03936 9.91817 3.06312 10.2229 3.10344L12.3835 0.0178673ZM12.8667 6.66949C13.5186 6.20395 14.5049 4.98887 14.5049 4.98887C14.5049 4.98887 17.0244 6.98541 17.0244 11.2188C17.0244 15.4522 12.6686 18.0001 12.6686 18.0001C12.6686 18.0001 10.5876 15.8984 10.0767 13.2342C9.5658 10.57 10.8324 7.61172 10.8324 7.61172C10.8324 7.61172 12.2149 7.13503 12.8667 6.66949ZM5.8466 6.66949C5.19477 6.20395 4.20842 4.98887 4.20842 4.98887C4.20842 4.98887 1.68896 6.98541 1.68896 11.2188C1.68896 15.4522 6.04471 18.0001 6.04471 18.0001C6.04471 18.0001 8.12579 15.8984 8.63669 13.2342C9.14754 10.57 7.88096 7.61172 7.88096 7.61172C7.88096 7.61172 6.49847 7.13503 5.8466 6.66949Z" fill="white"/>
</svg>
