<svg width="19" height="18" viewBox="0 0 19 18" fill="none" xmlns="http://www.w3.org/2000/svg">
<g clip-path="url(#clip0_11_1694)">
<path fill-rule="evenodd" clip-rule="evenodd" d="M8.29938 15.9206C8.64135 15.9729 8.99158 16.0001 9.3482 16.0001C13.1452 16.0001 16.2232 12.922 16.2232 9.12506C16.2232 5.32806 13.1452 2.25001 9.3482 2.25001C9.09346 2.25001 8.84191 2.26387 8.59438 2.29087C10.4779 3.71783 11.7232 6.18971 11.7232 9.00005C11.7232 11.9546 10.3468 14.5351 8.29938 15.9206ZM9.22319 18.0001C14.1938 18.0001 18.2232 13.9706 18.2232 9.00005C18.2232 4.02946 14.1938 0 9.22319 0C4.25259 0 0.223145 4.02946 0.223145 9.00005C0.223145 13.9706 4.25259 18.0001 9.22319 18.0001Z" fill="white"/>
</g>
<defs>
<clipPath id="clip0_11_1694">
<rect width="18.0001" height="18.0001" fill="white" transform="translate(0.234863)"/>
</clipPath>
</defs>
</svg>
