<svg width="19" height="18" viewBox="0 0 19 18" fill="none" xmlns="http://www.w3.org/2000/svg">
<g clip-path="url(#clip0_11_1704)">
<path fill-rule="evenodd" clip-rule="evenodd" d="M15.7457 13.8323C17.5634 12.3789 18.7052 10.2789 18.7052 7.9436C18.7052 3.55646 14.6757 0 9.70513 0C4.73453 0 0.705078 3.55646 0.705078 7.9436C0.705078 10.1946 1.76588 12.2269 3.47032 13.6724C3.36702 14.029 3.31035 14.417 3.31035 14.8227C3.31035 16.5775 4.37073 18.0001 5.6788 18.0001C6.52874 18.0001 7.27413 17.3995 7.69196 16.4973C8.1098 17.3995 8.85518 18.0001 9.70513 18.0001C10.4799 18.0001 11.1678 17.501 11.5999 16.7294C12.032 17.501 12.7199 18.0001 13.4946 18.0001C14.8027 18.0001 15.8631 16.5775 15.8631 14.8227C15.8631 14.4769 15.8219 14.1439 15.7457 13.8323ZM14.9157 8.10113C14.9157 10.3284 12.5298 12.134 9.58672 12.134C6.6436 12.134 4.25774 10.3284 4.25774 8.10113C4.25774 5.87383 6.6436 4.06823 9.58672 4.06823C12.5298 4.06823 14.9157 5.87383 14.9157 8.10113Z" fill="white"/>
</g>
<defs>
<clipPath id="clip0_11_1704">
<rect width="18.0001" height="18.0001" fill="white" transform="translate(0.705078)"/>
</clipPath>
</defs>
</svg>
