<svg width="19" height="18" viewBox="0 0 19 18" fill="none" xmlns="http://www.w3.org/2000/svg">
<g clip-path="url(#clip0_11_1698)">
<path fill-rule="evenodd" clip-rule="evenodd" d="M14.7144 8.60526C14.7134 8.60386 14.713 8.6021 14.7132 8.60038L15.8616 1.90426C15.8621 1.90118 15.8648 1.89893 15.8679 1.89893H16.2314C16.2342 1.89893 16.2366 1.90074 16.2375 1.90342L18.8246 10.095C18.8255 10.0975 18.8246 10.1003 18.8225 10.102L16.9149 11.5913C16.9121 11.5935 16.908 11.593 16.9058 11.59L14.7144 8.60526ZM0.787598 13.0443C0.787598 13.0471 0.789383 13.0495 0.792024 13.0504L4.72424 14.3361C4.72614 14.3367 4.72825 14.3364 4.7299 14.3353L13.5193 8.2673C13.5208 8.26628 13.5218 8.2647 13.522 8.26294L14.4646 1.9386C14.4652 1.93471 14.4622 1.93123 14.4582 1.93123H6.673C6.67106 1.93123 6.66927 1.93208 6.66804 1.93355L0.789075 9.02563C0.78812 9.02679 0.787598 9.02823 0.787598 9.02974V13.0443ZM6.36281 14.6637L10.6587 16.0709C10.6606 16.0715 10.6628 16.0712 10.6644 16.07L15.7789 12.4014C15.7818 12.3993 15.7825 12.3954 15.7806 12.3926L13.8633 9.53944C13.8613 9.53645 13.8573 9.53568 13.8543 9.53772L6.36281 14.6637Z" fill="white"/>
</g>
<defs>
<clipPath id="clip0_11_1698">
<rect width="18.0001" height="18.0001" fill="white" transform="translate(0.822754)"/>
</clipPath>
</defs>
</svg>
