<svg width="19" height="18" viewBox="0 0 19 18" fill="none" xmlns="http://www.w3.org/2000/svg">
<g clip-path="url(#clip0_11_1702)">
<path fill-rule="evenodd" clip-rule="evenodd" d="M4.37503 15.4599C4.37014 15.4599 4.36673 15.4551 4.36835 15.4505L8.96382 2.4654C8.96484 2.46258 8.96751 2.46069 8.9705 2.46069H13.8763C13.8793 2.46069 13.882 2.4626 13.883 2.46544L18.4103 15.4505C18.4119 15.4551 18.4085 15.4599 18.4036 15.4599H4.51312H4.37503ZM0.417722 15.5107C0.412786 15.5107 0.409369 15.5058 0.4111 15.5012L3.83322 6.36503C3.83425 6.36225 3.83689 6.36042 3.83984 6.36042H6.81327C6.81819 6.36042 6.8216 6.36531 6.81991 6.36991L3.51082 15.5061C3.50981 15.5089 3.50715 15.5107 3.50417 15.5107H0.417722Z" fill="white"/>
</g>
<defs>
<clipPath id="clip0_11_1702">
<rect width="18.0001" height="18.0001" fill="white" transform="translate(0.410645)"/>
</clipPath>
</defs>
</svg>
