<svg width="18" height="18" viewBox="0 0 18 18" fill="none" xmlns="http://www.w3.org/2000/svg">
<path fill-rule="evenodd" clip-rule="evenodd" d="M14.8421 12.1825C14.8421 15.3951 12.2279 17.9995 9.00307 17.9995C5.77828 17.9995 3.16408 15.3951 3.16408 12.1825C3.16408 9.05791 8.68722 0.47654 8.99013 0.00825313C8.99706 -0.00242559 9.00912 -0.00242549 9.01601 0.00825323C9.31892 0.47654 14.8421 9.05791 14.8421 12.1825ZM8.02973 16.1346C5.06674 15.4863 5.57377 12.2041 5.57377 12.2041C5.57377 12.2041 6.38286 14.1854 8.34631 14.8273C10.3097 15.469 12.6825 14.5278 12.6825 14.5278C12.6825 14.5278 10.9927 16.7829 8.02973 16.1346Z" fill="white"/>
</svg>
