<svg width="10" height="13" viewBox="0 0 10 13" fill="none" xmlns="http://www.w3.org/2000/svg">
<path d="M9.12475 4.12485C9.12475 1.84485 7.27976 -0.000152588 4.99976 -0.000152588C2.71976 -0.000152588 0.874756 1.84485 0.874756 4.12485C0.874756 6.14985 2.32976 7.82235 4.24976 8.17485L4.24976 9.74985H2.74976L2.74976 11.2498H4.24976V12.7498H5.74976L5.74976 11.2498H7.24976V9.74985H5.74976V8.17485C7.66976 7.82235 9.12475 6.14985 9.12475 4.12485ZM2.37476 4.12485C2.37476 2.67735 3.55226 1.49985 4.99976 1.49985C6.44726 1.49985 7.62476 2.67735 7.62476 4.12485C7.62476 5.57235 6.44726 6.74985 4.99976 6.74985C3.55226 6.74985 2.37476 5.57235 2.37476 4.12485Z" fill="black" fill-opacity="0.7"/>
</svg>
