<svg width="12" height="12" viewBox="0 0 12 12" fill="none" xmlns="http://www.w3.org/2000/svg">
<path d="M4.125 5.24941C5.5725 5.24941 6.75 6.42691 6.75 7.87441C6.75 9.32191 5.5725 10.4994 4.125 10.4994C2.6775 10.4994 1.5 9.32191 1.5 7.87441C1.5 6.42691 2.6775 5.24941 4.125 5.24941ZM4.125 3.74941C1.845 3.74941 0 5.59441 0 7.87441C0 10.1544 1.845 11.9994 4.125 11.9994C6.405 11.9994 8.25 10.1544 8.25 7.87441C8.25 7.00441 7.98 6.20191 7.5225 5.53441L10.5 2.56441V4.49941H12V-0.000595093L7.5 -0.000595093V1.49941L9.435 1.49941L6.4575 4.47691C5.7975 4.01941 4.995 3.74941 4.125 3.74941Z" fill="black" fill-opacity="0.7"/>
</svg>
